<svg width="22" height="21" viewBox="0 0 22 21" fill="none" xmlns="http://www.w3.org/2000/svg">
<path d="M16.0096 5.74569L13.4085 3.39429C13.3234 3.31669 13.2221 3.25509 13.1105 3.21306C12.9988 3.17103 12.8791 3.14938 12.7582 3.14938C12.6373 3.14938 12.5176 3.17103 12.406 3.21306C12.2944 3.25509 12.1931 3.31669 12.108 3.39429C11.9374 3.54942 11.8416 3.75927 11.8416 3.978C11.8416 4.19674 11.9374 4.40658 12.108 4.56171L14.0496 6.31698L6.63098 13.0234L4.68931 11.2682C4.51771 11.114 4.28558 11.0274 4.04362 11.0274C3.80166 11.0274 3.56952 11.114 3.39792 11.2682C3.31208 11.3451 3.24394 11.4367 3.19744 11.5376C3.15095 11.6385 3.12701 11.7467 3.12701 11.856C3.12701 11.9653 3.15095 12.0735 3.19744 12.1744C3.24394 12.2753 3.31208 12.3669 3.39792 12.4439L5.97155 14.7704L8.54517 17.097C8.63 17.1752 8.73115 17.2375 8.84278 17.2801C8.9544 17.3227 9.07427 17.3449 9.19545 17.3454C9.37737 17.3463 9.55548 17.2983 9.70707 17.2074C9.85867 17.1165 9.97688 16.9868 10.0466 16.8349C10.1164 16.683 10.1345 16.5158 10.0988 16.3546C10.063 16.1933 9.97489 16.0454 9.84573 15.9296L7.93153 14.1991L15.3502 7.49268L17.2918 9.24795C17.3772 9.3246 17.4785 9.3853 17.5898 9.42658C17.7012 9.46785 17.8204 9.4889 17.9408 9.48852C18.0611 9.48813 18.1802 9.46632 18.2912 9.42434C18.4022 9.38235 18.503 9.32101 18.5878 9.24381C18.6726 9.16661 18.7397 9.07507 18.7854 8.97442C18.8311 8.87376 18.8544 8.76596 18.8539 8.65717C18.8535 8.54838 18.8294 8.44073 18.7829 8.34037C18.7365 8.24001 18.6686 8.1489 18.5832 8.07225L16.0096 5.74569ZM3.39792 14.7787C3.22546 14.6228 2.99155 14.5352 2.74765 14.5352C2.50375 14.5352 2.26983 14.6228 2.09737 14.7787C1.92491 14.9346 1.82802 15.1461 1.82802 15.3666C1.82802 15.587 1.92491 15.7985 2.09737 15.9544L4.68931 18.2975C4.77489 18.3743 4.87639 18.435 4.98798 18.4762C5.09957 18.5174 5.21905 18.5383 5.33959 18.5376C5.46013 18.5383 5.57961 18.5174 5.6912 18.4762C5.80279 18.435 5.90429 18.3743 5.98987 18.2975C6.07571 18.2206 6.14385 18.129 6.19034 18.0281C6.23684 17.9272 6.26078 17.819 6.26078 17.7097C6.26078 17.6004 6.23684 17.4922 6.19034 17.3913C6.14385 17.2904 6.07571 17.1988 5.98987 17.1218L3.39792 14.7787ZM19.8838 4.56171L17.2918 2.21859C17.2064 2.1414 17.1051 2.08016 16.9935 2.03838C16.8819 1.9966 16.7623 1.9751 16.6416 1.9751C16.5208 1.9751 16.4012 1.9966 16.2896 2.03838C16.1781 2.08016 16.0767 2.1414 15.9913 2.21859C15.9059 2.29579 15.8382 2.38744 15.7919 2.4883C15.7457 2.58916 15.7219 2.69727 15.7219 2.80644C15.7219 2.91562 15.7457 3.02372 15.7919 3.12458C15.8382 3.22545 15.9059 3.31709 15.9913 3.39429L18.5832 5.73741C18.6684 5.81501 18.7697 5.87661 18.8813 5.91864C18.9929 5.96068 19.1126 5.98232 19.2335 5.98232C19.3544 5.98232 19.4741 5.96068 19.5857 5.91864C19.6973 5.87661 19.7986 5.81501 19.8838 5.73741C19.9696 5.66044 20.0378 5.56887 20.0843 5.46797C20.1308 5.36708 20.1547 5.25886 20.1547 5.14956C20.1547 5.04026 20.1308 4.93204 20.0843 4.83115C20.0378 4.73025 19.9696 4.63868 19.8838 4.56171Z" fill="#65D665"/>
</svg>
