<svg width="23" height="21" viewBox="0 0 23 21" fill="none" xmlns="http://www.w3.org/2000/svg">
<path d="M17.5371 3.82794H15.7054V2.99998C15.7054 2.7804 15.6089 2.5698 15.4371 2.41453C15.2654 2.25926 15.0324 2.17203 14.7895 2.17203C14.5466 2.17203 14.3136 2.25926 14.1419 2.41453C13.9701 2.5698 13.8736 2.7804 13.8736 2.99998V3.82794H8.37833V2.99998C8.37833 2.7804 8.28184 2.5698 8.11008 2.41453C7.93831 2.25926 7.70536 2.17203 7.46245 2.17203C7.21954 2.17203 6.98659 2.25926 6.81482 2.41453C6.64306 2.5698 6.54657 2.7804 6.54657 2.99998V3.82794H4.71481C3.98609 3.82794 3.28721 4.08963 2.77193 4.55545C2.25665 5.02127 1.96716 5.65305 1.96716 6.31181V16.2473C1.96716 16.9061 2.25665 17.5378 2.77193 18.0037C3.28721 18.4695 3.98609 18.7312 4.71481 18.7312H17.5371C18.2659 18.7312 18.9647 18.4695 19.48 18.0037C19.9953 17.5378 20.2848 16.9061 20.2848 16.2473V6.31181C20.2848 5.65305 19.9953 5.02127 19.48 4.55545C18.9647 4.08963 18.2659 3.82794 17.5371 3.82794ZM18.453 16.2473C18.453 16.4669 18.3565 16.6775 18.1848 16.8328C18.013 16.988 17.78 17.0753 17.5371 17.0753H4.71481C4.4719 17.0753 4.23894 16.988 4.06718 16.8328C3.89542 16.6775 3.79893 16.4669 3.79893 16.2473V10.4516H18.453V16.2473ZM18.453 8.79568H3.79893V6.31181C3.79893 6.09222 3.89542 5.88163 4.06718 5.72636C4.23894 5.57109 4.4719 5.48386 4.71481 5.48386H6.54657V6.31181C6.54657 6.5314 6.64306 6.74199 6.81482 6.89727C6.98659 7.05254 7.21954 7.13977 7.46245 7.13977C7.70536 7.13977 7.93831 7.05254 8.11008 6.89727C8.28184 6.74199 8.37833 6.5314 8.37833 6.31181V5.48386H13.8736V6.31181C13.8736 6.5314 13.9701 6.74199 14.1419 6.89727C14.3136 7.05254 14.5466 7.13977 14.7895 7.13977C15.0324 7.13977 15.2654 7.05254 15.4371 6.89727C15.6089 6.74199 15.7054 6.5314 15.7054 6.31181V5.48386H17.5371C17.78 5.48386 18.013 5.57109 18.1848 5.72636C18.3565 5.88163 18.453 6.09222 18.453 6.31181V8.79568Z" fill="#65D665"/>
</svg>
