<svg width="20" height="20" viewBox="0 0 20 20" fill="none" xmlns="http://www.w3.org/2000/svg">
<path d="M19.2174 10.1739C19.2174 11.0435 18.5217 11.7391 17.6522 11.7391H11.3913V17.6522C11.3913 18.5218 10.6957 19.2174 9.82609 19.2174C8.95652 19.2174 8.26087 18.5218 8.26087 17.6522V11.7391H2.34783C1.47826 11.7391 0.782608 11.0435 0.782608 10.1739C0.782608 9.30436 1.47826 8.60871 2.34783 8.60871H8.26087V2.34784C8.26087 1.47828 8.95652 0.782623 9.82609 0.782623C10.6957 0.782623 11.3913 1.47828 11.3913 2.34784V8.60871H17.6522C18.5217 8.60871 19.2174 9.30436 19.2174 10.1739Z" fill="#65D665"/>
</svg>
